<?xml version="1.0" standalone="no"?>
<!DOCTYPE svg PUBLIC "-//W3C//DTD SVG 20010904//EN"
 "http://www.w3.org/TR/2001/REC-SVG-20010904/DTD/svg10.dtd">
<svg version="1.0" xmlns="http://www.w3.org/2000/svg"
 width="499.000000pt" height="499.000000pt" viewBox="0 0 499.000000 499.000000"
 preserveAspectRatio="xMidYMid meet">
<metadata>
Created by potrace 1.11, written by Peter Selinger 2001-2013
</metadata>
<g transform="translate(0.000000,499.000000) scale(0.100000,-0.100000)"
fill="#000000" stroke="none">
<path d="M0 2495 l0 -2495 2495 0 2495 0 0 2495 0 2495 -2495 0 -2495 0 0
-2495z m2564 1735 c195 -43 282 -85 416 -200 137 -119 203 -254 222 -460 10
-115 10 -133 -10 -230 -12 -58 -29 -130 -39 -160 -34 -106 -141 -298 -301
-539 -150 -227 -162 -248 -162 -290 0 -66 15 -110 60 -180 45 -70 127 -129
213 -156 29 -8 66 -20 83 -25 17 -6 78 -17 136 -25 216 -30 261 -51 352 -161
63 -77 101 -157 131 -280 51 -207 57 -419 15 -554 -24 -76 -39 -94 -103 -127
-45 -22 -52 -23 -102 -12 -66 15 -64 14 -103 71 -29 43 -33 57 -41 153 -4 58
-10 108 -13 111 -4 3 -27 -39 -53 -93 -74 -156 -127 -235 -187 -276 -29 -20
-73 -51 -98 -68 l-45 -33 -275 -2 c-270 -3 -276 -3 -349 22 -42 14 -97 41
-123 60 -27 19 -52 34 -57 34 -10 0 -63 115 -86 190 -10 30 -27 72 -37 94 -17
33 -22 36 -33 25 -11 -11 -74 -120 -144 -249 -4 -8 -30 -29 -57 -48 -45 -31
-53 -33 -99 -26 -27 4 -63 8 -78 8 -23 1 -34 10 -54 46 -41 73 -78 185 -127
385 -26 105 -54 219 -63 255 -9 36 -18 83 -19 105 -1 36 -31 142 -66 235 -7
20 -27 58 -45 85 -19 29 -41 86 -54 138 -20 81 -21 97 -11 219 l10 132 -40
155 c-43 170 -46 230 -14 291 10 19 24 45 30 57 20 40 128 39 208 -3 16 -9 31
-14 33 -12 1 2 14 26 28 54 28 56 84 110 123 120 39 10 115 -4 130 -24 41 -53
48 -102 50 -321 l2 -213 40 -24 c44 -26 76 -82 86 -149 15 -92 -79 -330 -168
-432 -43 -48 -45 -53 -35 -80 7 -15 19 -54 28 -86 10 -32 20 -59 25 -60 4 -1
20 27 35 63 45 105 106 191 164 230 29 20 114 62 189 94 116 49 143 65 181
105 70 75 70 80 -10 164 -170 179 -288 357 -437 658 -108 217 -141 337 -140
514 1 109 4 128 34 210 18 50 41 115 52 145 41 113 179 265 285 314 146 68
358 91 517 56z"/>
<path d="M2192 4108 c-80 -24 -187 -93 -229 -145 -33 -42 -133 -237 -133 -260
0 -8 -9 -39 -20 -70 -21 -60 -26 -195 -10 -258 4 -16 5 14 2 68 -4 76 -1 111
13 160 86 303 194 438 390 492 94 26 350 8 440 -30 112 -47 186 -90 239 -137
82 -73 186 -240 186 -299 0 -11 4 -18 9 -15 12 8 -27 125 -49 151 -10 11 -26
36 -35 55 -31 62 -158 176 -238 214 -195 93 -414 121 -565 74z"/>
<path d="M3081 3584 c0 -11 3 -14 6 -6 3 7 2 16 -1 19 -3 4 -6 -2 -5 -13z"/>
<path d="M3083 3510 c0 -25 2 -35 4 -22 2 12 2 32 0 45 -2 12 -4 2 -4 -23z"/>
<path d="M2885 3419 c-145 -35 -181 -48 -230 -84 -56 -40 -104 -96 -128 -151
-44 -103 -89 -222 -94 -248 -8 -40 7 -46 114 -46 107 0 166 18 253 78 49 34
60 49 104 137 45 92 134 297 139 320 4 18 -76 15 -158 -6z"/>
<path d="M3077 3401 c-4 -18 -7 -43 -6 -55 1 -11 5 -1 10 24 5 25 7 49 6 55
-2 5 -7 -5 -10 -24z"/>
<path d="M1828 3333 c-10 -2 -18 -5 -18 -6 0 -6 75 -201 90 -232 5 -11 16 -37
24 -59 9 -21 36 -69 61 -106 25 -37 45 -73 45 -79 0 -13 56 -107 81 -136 9
-11 32 -47 50 -80 20 -36 81 -109 155 -184 119 -122 123 -125 149 -113 l27 13
-6 -38 c-16 -90 -16 -100 -1 -58 7 22 14 57 14 77 1 50 10 68 37 79 14 5 24
17 24 28 0 11 6 26 14 34 8 7 29 38 47 68 18 30 51 78 73 108 23 30 56 74 74
98 19 25 31 47 29 49 -3 3 -15 -10 -28 -28 -13 -18 -46 -62 -75 -98 -28 -36
-59 -79 -67 -96 -9 -17 -37 -56 -62 -85 -26 -30 -58 -73 -73 -96 -15 -23 -34
-42 -43 -43 -19 0 -221 207 -260 266 -66 100 -146 233 -162 267 l-17 38 43
-26 c57 -33 131 -34 190 -2 23 12 43 23 45 24 2 0 -4 23 -13 50 -18 52 -42 92
-117 195 -46 63 -58 72 -159 123 -102 52 -129 59 -171 48z m27 -53 c19 -36 20
-61 1 -35 -15 23 -30 65 -22 65 3 0 12 -13 21 -30z"/>
<path d="M3043 3259 c-12 -30 -11 -32 3 -17 9 8 14 23 12 33 -2 12 -7 7 -15
-16z"/>
<path d="M2990 3143 c-19 -43 -37 -82 -40 -88 -4 -5 -10 -19 -14 -29 -5 -15
-4 -17 8 -7 8 6 17 24 21 38 3 14 21 57 39 94 19 38 30 69 26 69 -4 0 -22 -35
-40 -77z"/>
<path d="M2916 2985 c-9 -26 -7 -32 5 -12 6 10 9 21 6 23 -2 3 -7 -2 -11 -11z"/>
<path d="M1569 2950 c23 -10 23 -12 17 -103 -3 -50 -6 -133 -5 -183 0 -120 -6
-144 -40 -145 l-26 -1 25 -7 c27 -7 26 -3 22 -147 -2 -64 -3 -67 -46 -108 -85
-79 -118 -155 -81 -186 12 -10 18 -10 30 0 8 6 18 9 23 6 5 -3 16 9 24 27 9
18 37 56 62 85 25 30 46 59 46 65 -1 12 -11 2 -116 -115 -29 -31 -54 -54 -58
-51 -26 26 25 117 93 168 28 20 62 50 77 68 33 39 74 68 87 60 6 -3 7 -1 3 5
-13 22 -37 12 -81 -34 -33 -33 -46 -42 -50 -31 -3 7 -2 59 3 113 10 114 16
263 17 414 0 105 0 105 -25 107 l-25 3 24 -10z"/>
<path d="M1519 2919 c-6 -12 -13 -67 -15 -123 -4 -124 -23 -347 -30 -358 -3
-4 -1 -8 4 -8 10 0 24 69 22 105 0 11 5 62 12 113 10 82 14 93 30 89 25 -7 23
10 -2 18 -17 5 -20 15 -20 70 0 35 4 75 10 89 12 31 5 34 -11 5z"/>
<path d="M2851 2884 c-24 -30 -41 -57 -38 -60 4 -4 60 68 81 104 15 26 -1 10
-43 -44z"/>
<path d="M1248 2819 c30 -9 32 -12 32 -54 0 -50 40 -215 70 -285 10 -25 26
-76 34 -114 16 -67 16 -70 -4 -91 -28 -29 -25 -36 8 -19 15 7 42 14 60 14 17
0 32 5 32 10 0 6 -7 10 -15 10 -19 0 -19 5 0 65 14 47 13 79 -1 39 -21 -58
-34 -84 -43 -84 -6 0 -11 7 -11 16 0 17 -21 87 -55 184 -29 83 -65 236 -65
276 0 33 -14 45 -53 43 -16 -1 -13 -3 11 -10z"/>
<path d="M1201 2757 c0 -20 16 -90 38 -155 52 -157 80 -297 63 -320 -13 -20
-37 -69 -46 -95 -3 -10 3 -36 14 -57 11 -22 20 -53 20 -70 0 -41 25 -100 43
-100 8 0 26 -9 39 -20 20 -15 27 -34 37 -97 11 -71 24 -143 51 -263 l9 -45 -4
55 c-3 30 -14 105 -25 165 -11 61 -22 127 -25 148 -5 31 -12 40 -48 58 -23 12
-43 22 -44 23 -1 0 -5 14 -9 30 l-7 29 32 -24 c29 -21 32 -22 48 -6 9 9 13 20
9 24 -5 5 -11 2 -13 -4 -10 -28 -33 -10 -73 57 -48 79 -49 107 -5 164 30 39
30 47 9 132 -13 49 -14 68 -5 77 15 15 14 27 -2 27 -7 0 -23 30 -36 68 -13 37
-26 72 -28 78 -2 7 6 22 19 34 l23 21 -26 -6 c-22 -5 -28 -2 -37 22 -6 15 -13
42 -15 58 -4 26 -4 25 -6 -8z"/>
<path d="M2357 2643 c-4 -3 -7 -11 -7 -17 0 -6 5 -5 12 2 6 6 9 14 7 17 -3 3
-9 2 -12 -2z"/>
<path d="M2420 2643 c0 -4 5 -15 10 -23 8 -13 10 -13 10 2 0 9 -4 20 -10 23
-5 3 -10 3 -10 -2z"/>
<path d="M2548 2370 c-3 -16 -1 -30 4 -30 4 0 8 14 8 30 0 17 -2 30 -4 30 -2
0 -6 -13 -8 -30z"/>
<path d="M1721 2310 c0 -33 1 -34 10 -11 6 16 6 28 -1 35 -7 7 -10 -1 -9 -24z"/>
<path d="M2554 2263 c5 -111 37 -166 148 -259 50 -42 106 -82 124 -90 19 -8
50 -21 69 -29 19 -8 65 -17 102 -21 37 -3 91 -12 118 -19 28 -8 82 -17 120
-20 39 -4 75 -10 80 -15 6 -4 22 -10 36 -13 14 -4 45 -27 68 -52 22 -24 41
-40 41 -35 0 6 -16 28 -36 50 -42 46 -117 74 -243 90 -180 22 -227 31 -294 56
-114 40 -249 150 -293 237 -14 27 -29 79 -34 120 l-9 72 3 -72z"/>
<path d="M1711 2257 c-1 -21 -67 -155 -105 -216 -14 -21 -36 -48 -50 -59 -20
-15 -26 -28 -25 -53 1 -28 3 -29 6 -9 3 14 22 43 43 65 51 53 143 232 137 265
-3 16 -5 19 -6 7z"/>
<path d="M1320 2191 c0 -25 27 -88 42 -97 7 -5 9 -2 6 7 -3 8 -9 22 -13 32 -4
10 -3 17 4 17 6 0 13 -11 17 -25 3 -14 10 -25 15 -25 20 0 -3 45 -42 82 -25
23 -29 24 -29 9z"/>
<path d="M2441 2164 c-12 -26 -19 -49 -16 -52 3 -3 14 16 26 42 11 26 18 50
16 53 -3 2 -15 -17 -26 -43z"/>
<path d="M2388 2065 c-31 -46 -103 -79 -220 -99 -61 -11 -180 -71 -222 -113
-87 -86 -120 -158 -137 -300 -11 -99 -30 -173 -58 -236 -12 -25 -21 -59 -22
-74 0 -15 -6 -43 -13 -62 -16 -45 -29 -27 -45 64 -7 39 -24 111 -38 160 -42
153 -83 319 -83 340 0 11 -5 27 -10 35 -13 19 -4 -49 17 -135 8 -33 18 -78 23
-100 4 -22 17 -70 29 -106 11 -37 26 -89 31 -115 38 -183 46 -209 60 -209 15
0 50 101 50 148 0 15 9 45 20 66 21 42 45 145 59 257 14 108 43 172 108 238
60 60 179 126 228 126 41 0 178 49 203 73 24 22 57 77 47 77 -2 0 -15 -16 -27
-35z"/>
<path d="M2175 1842 c6 -6 24 -13 40 -17 21 -4 25 -3 15 3 -24 15 -67 26 -55
14z"/>
<path d="M2795 1830 l-50 -7 50 -1 c28 0 59 3 70 8 l20 9 -20 -1 c-11 -1 -42
-4 -70 -8z"/>
<path d="M2282 1806 c20 -7 58 -26 85 -41 27 -16 42 -22 35 -12 -18 22 -111
67 -136 67 -14 -1 -8 -6 16 -14z"/>
<path d="M2688 1804 c-16 -8 -28 -17 -28 -19 0 -7 60 17 66 26 8 13 -7 10 -38
-7z"/>
<path d="M3484 1650 c9 -14 29 -66 46 -115 17 -50 28 -73 25 -51 -9 56 -43
141 -66 168 l-20 23 15 -25z"/>
<path d="M2001 1617 c-5 -14 -15 -44 -21 -68 -33 -122 -75 -230 -149 -382 -44
-93 -81 -171 -81 -173 0 -17 -56 -84 -71 -84 -19 0 -49 35 -49 60 0 8 -12 38
-25 65 -14 28 -25 64 -25 82 0 17 -12 64 -26 105 -24 66 -72 262 -73 297 -1 8
-4 12 -7 9 -8 -8 32 -203 55 -271 11 -33 27 -91 36 -131 12 -61 44 -148 74
-206 4 -8 21 -16 38 -18 39 -4 60 27 151 223 107 231 108 233 142 343 17 56
36 105 41 108 13 8 23 -27 44 -141 22 -124 53 -255 66 -275 7 -11 8 -6 3 15
-3 17 -7 36 -8 43 0 8 27 22 71 36 67 22 140 63 129 73 -2 3 -17 -5 -33 -16
-30 -22 -114 -51 -150 -51 -29 0 -37 17 -57 130 -10 52 -22 115 -27 140 -6 25
-13 57 -16 73 -7 37 -21 43 -32 14z"/>
<path d="M3290 1583 c0 -10 11 -23 23 -29 23 -10 24 -10 10 18 -16 31 -33 37
-33 11z"/>
<path d="M3276 1485 c-3 -9 -6 -22 -5 -28 0 -7 5 -1 10 12 5 13 8 26 5 28 -2
2 -6 -3 -10 -12z"/>
<path d="M3568 1363 c5 -59 10 -63 11 -10 1 26 -3 47 -7 47 -4 0 -6 -17 -4
-37z"/>
<path d="M3215 1288 c-43 -112 -54 -135 -109 -221 -21 -32 -36 -62 -34 -67 4
-11 109 163 121 200 5 14 22 58 38 98 17 40 29 78 27 83 -2 5 -21 -37 -43 -93z"/>
<path d="M2904 1312 c3 -4 28 -23 56 -40 28 -18 49 -28 45 -23 -3 5 -28 23
-56 41 -28 17 -48 27 -45 22z"/>
<path d="M3431 1294 c0 -11 3 -14 6 -6 3 7 2 16 -1 19 -3 4 -6 -2 -5 -13z"/>
<path d="M3584 1190 c0 -63 1 -89 3 -57 2 31 2 83 0 115 -2 31 -3 5 -3 -58z"/>
<path d="M2290 1149 c-35 -31 -35 -31 -3 -9 18 11 35 25 38 30 10 16 2 11 -35
-21z"/>
<path d="M2923 1158 c11 -10 27 -18 36 -17 10 0 7 4 -8 10 -14 5 -30 13 -36
17 -6 4 -2 -1 8 -10z"/>
<path d="M3453 1135 c0 -27 2 -38 4 -22 2 15 2 37 0 50 -2 12 -4 0 -4 -28z"/>
<path d="M2131 1120 c0 -8 7 -31 15 -50 l14 -35 -6 35 c-7 40 -24 76 -23 50z"/>
<path d="M3005 1120 c3 -5 14 -10 23 -10 15 0 15 2 2 10 -20 13 -33 13 -25 0z"/>
<path d="M3070 1120 c-9 -6 -10 -10 -3 -10 6 0 15 5 18 10 8 12 4 12 -15 0z"/>
<path d="M2205 1110 l-40 -7 37 -2 c20 0 40 4 43 9 3 6 5 9 3 9 -2 -1 -21 -5
-43 -9z"/>
<path d="M2875 1058 c10 -24 93 -80 112 -75 17 4 17 5 -1 6 -10 0 -40 19 -67
42 -27 23 -47 35 -44 27z"/>
<path d="M2167 1000 c6 -37 52 -120 66 -120 5 0 -1 15 -12 33 l-20 33 55 12
c55 11 114 44 114 64 0 6 -8 4 -18 -5 -27 -25 -87 -47 -127 -47 -30 0 -37 5
-49 33 l-15 32 6 -35z"/>
<path d="M3038 929 c-9 -16 -14 -29 -9 -29 9 0 36 48 30 54 -2 3 -12 -9 -21
-25z"/>
</g>
</svg>
